<svg xmlns="http://www.w3.org/2000/svg" viewBox="0 0 30 28.5"><defs><style>.a{fill:#ed661e;stroke:#524343;stroke-width:0.1px;}.b{fill:#fff;stroke:#504d4d;stroke-width:0.25px;font-size:35px;font-family:PerpetuaTitlingMT-Light, Perpetua Titling MT;font-weight:300;}</style></defs><g transform="translate(-719.972 -380.486)"><path class="a" d="M4.4,31.215a5.382,5.382,0,0,1-3.149-.864,2.605,2.605,0,0,1-1.23-2.2A1.918,1.918,0,0,1,.44,26.908,1.273,1.273,0,0,1,1.458,26.4a.864.864,0,0,1,.967.982c0,.778-.355,1.172-1.055,1.172-.5,0-.776-.32-.806-.952a.188.188,0,0,0-.029-.1c-.165,0-.249.237-.249.7a2.3,2.3,0,0,0,1.165,1.941,5.15,5.15,0,0,0,2.922.784,8.43,8.43,0,0,0,6.475-3.062A17.948,17.948,0,0,0,12.9,24.975q.883-1.566,1.771-3.135a12.6,12.6,0,0,0,1.69.874,25.622,25.622,0,0,1-2.21,3.622,12.583,12.583,0,0,1-3.245,2.871A12.1,12.1,0,0,1,4.4,31.215Z" transform="translate(720 375)"/><text class="b" transform="translate(725 408)"><tspan x="0" y="0">S</tspan></text><path class="a" d="M22.038,15.851h0c-.481-.338-1-.673-1.546-1l.616-1.084.234-.41a4.587,4.587,0,0,1-2.358-1.6,4.229,4.229,0,0,1-.879-2.63,5.486,5.486,0,0,1,2.183-4.409,7.988,7.988,0,0,1,2.6-1.45,31.492,31.492,0,0,1,4.724-.835,29.979,29.979,0,0,0,3.574-.689C32.993.587,34.265,0,34.964,0c.136,0,.205.054.205.161,0,.145-.394.4-1.172.762a18.7,18.7,0,0,1-2.666.937,23.565,23.565,0,0,0-4.255,4.57,47.688,47.688,0,0,0-3.846,7.017H23.6a5.451,5.451,0,0,0,4.16-1.832,5.162,5.162,0,0,0,1.172-2.4c.039-.156.1-.235.176-.235s.131.049.131.147a4.082,4.082,0,0,1-1.795,3.1,5.987,5.987,0,0,1-3.815,1.457,3.876,3.876,0,0,1-.513-.029c-.061.131-.357.737-.879,1.8q-.1.2-.2.4ZM30.907,1.978c-.655.163-1.562.375-2.7.629a26.491,26.491,0,0,0-4.19,1.216A9.943,9.943,0,0,0,21.4,5.435a6.073,6.073,0,0,0-2.52,4.526,3.24,3.24,0,0,0,2.579,3.179C24.375,7.861,27.554,4.105,30.907,1.978Z" transform="translate(715 380.536)"/></g></svg>